<?xml version="1.0" encoding="UTF-8"?>
<svg xmlns="http://www.w3.org/2000/svg" viewBox="0 0 505.55 505.81">
  <defs>
    <style>
      .cls-1 {
        fill: #fff;
      }
    </style>
  </defs>
  <g id="Layer_2" data-name="Layer 2">
    <ellipse class="cls-1" cx="252.6" cy="252.91" rx="250.78" ry="252.91"/>
  </g>
  <g id="Layer_1" data-name="Layer 1">
    <g>
      <path d="M368.24,28.3c49.83,25.7,93.16,70.63,116.02,122.22,56.77,128.11-4.03,282.62-134.84,335.9-3.88,2.14-8.35,3.42-12.65,4.85-1.36.45-2.39,1.97-4.38,1.37.19-5.23-.25-10.54-.02-15.77.67-15.36,1.04-27.1-2.11-42.35-2.63-12.75-7.87-24.79-10.99-37.51-.7-2.86-2.35-5.59-1.28-9.01.22-.7,2.89-6.24,3.4-6.99,2.03-2.93,12.03-6.89,15.63-8.87,21.24-11.68,45.48-29.3,53.5-53.59,7.68-23.24-5.15-48.08-27.02-57.79-2.87-1.27-6.56-1.93-9.64-3.34-1.2-.55-2.11-1.69-3.53-2.09-1.06-1.47-.2-10.3-.46-12.92-1.73-17.62-9.46-29.76-23.68-39.82-17.65-12.48-38.96-5.49-49.03,13.59-5.82,11.02-9.52,32.45-8.3,45.74.4,4.38,1.83,10.53,2.9,14.6,1.05,3.98,2.18,10.22,2.16,14.39,0,1.05-.42,4.41-.8,5.23-.08.18-2.69,2.78-2.86,2.88-.24.13-4.83,1.62-5.1,1.65-4.25.55-17.76.52-22.04-.01-.89-.11-5.38-1.33-6.36-1.63-1.31-.41-3.88-2.38-4.27-3.74-.41-1.45-.31-9.07-.11-10.89.58-5.21,3.53-13.82,5.1-18.9.21-.69,1.09-1.03,1.3-1.7,1.1-3.57-1.08-8.35-1.39-11.91-.59-6.71-.43-12.66-2.06-19.44-2.36-9.78-6.98-20.8-14.51-27.97-3.74-3.57-10.16-7.88-15.17-8.36-18.38-1.76-33.6,10.21-42.07,25.48-2.22,4.01-5.46,12.83-6.16,17.84-.77,5.5,2.3,15.18-4.27,17.73-2.56.99-6.04,1.34-8.42,2.08-17.27,5.33-28.88,24.75-30.79,42.21-2.14,19.61,14.09,40.55,28.13,52.99,11.45,10.15,25.42,16.31,37.76,24.99,6.63,4.66,10.28,8.91,8.23,17.64-.54,2.31-2.49,5.91-3.08,7.92-1.77,6.04-3.33,11.69-5.2,17.8-6.15,20.08-7.52,41.5-4.93,63.14.32,2.71.61,5.48.54,8.22-2.7.76-4.4-.81-6.39-1.37-5.6-1.56-11.12-3.77-16.76-5.13-.52-.12-.44-1.1-1.19-1.41-.95-.39-1.93,0-3.16-.86-1.71-1.2-2.3-4.04-2.5-6-.94-9.37-1.42-18.76-2.97-28.03-.24-1.44.17-2.94-.12-4.38-2.84-2.09-5.99-3.64-8.98-5.52-8.85-5.59-12.57-11.4-15.68-21.32-2.93-9.35-2.93-19.6-6.4-28.6-2.65-6.88-9.66-18.72-14.89-24.13-5.52-5.72-20.38-12.14-28.19-11.2-3.15.38-8.11,2.74-8.78,6.22-.17.91-.15,7.59.12,8.12.11.22,3.28,3.37,3.5,3.48.61.31,1.46,0,2,.24,8.52,3.81,12.22,6.45,15.65,15.36,4.55,11.8,1.96,14.15,1.2,25.75-.33,4.96-.56,14.8.01,19.54.22,1.82,1.35,2.33,1.51,3.98-.81,1.15-1.38.73-2.33.07-4.9-5.71-11.2-10.63-16.16-16.21-16.59-18.64-30.63-41.66-40.57-63.29C4.93,317.23-4.21,270.12,1.86,221.85c3.03-24.12,7.52-44.07,16.66-66.34C74.53,19.13,236.71-39.53,368.24,28.3ZM159.71,74.33c-2.65-2.1-5.83-4.86-8.57-6.69s-6.81-4.65-10.23-3.24c-.69.28-6.58,4.65-7.21,5.29-8.89,8.9-16.72,28.85-19.69,40.81-1.08,4.36-2.44,10.96-3.07,15.43-2.41,17.18,2.42,36.51,11.17,50.75,1.12,1.83,1.61,4.16,3.84,5.66,3.16,2.13,4.22-.42,5.92-1.98,11.95-11,23.47-20.64,36.56-29.93,9.56-6.78,22.91-12.33,27.22-23.81,2-5.34,1.16-3.62-.13-8.35-.58-2.13-.42-2.38-1.31-4.69-5.37-13.78-22.61-29.87-34.48-39.26ZM371.07,68.96c-3.81-3.72-6.3-6.01-12.42-4.82-1.22.24-4.14,2.44-5.11,3-11.79,6.9-32.58,27.84-39.35,40.05-1.38,2.49-4.75,9.4-5.28,12.22-.63,3.33.27,7.96,1.96,10.88,2.46,4.26,18.4,13.83,23.26,17.37,12.57,9.16,22.83,17.87,34.45,28.29,3.09,2.77,6.26,5.54,9.49,8.16l5.53-5.5c20.43-28.96,11.73-85.91-12.54-109.64Z"/>
      <path d="M277.1,315.93c.51.51,1.12.42,1.3,1.44.29,1.56.21,7.81,0,9.53-.5,4.13-5.05,9.7-8.28,12.22-.76.59-4.77,3.45-5.08,3.53-1.04.26-2.56-.42-3.65.24-1.89,1.15-3.04,5.24-2.4,7.39.24.81,2.87,5.67,3.48,6.51,1.6,2.18,5.75,4.75,8.3,5.7,11.68,4.35,29.07,1.74,39.57-4.66,2.18-1.33,3.99-4.44,6.54-4.71.43,1.39-.91.91-1.24,1.48-.39.68-.12,1.61-.38,2.14-7.9,16.1-26.42,26.92-43.67,29.33-27.95,3.9-66.2-.97-78.08-29.83-.47-1.15-2.65-1.84-.87-3.12l4.11,4.51c11.08,7.79,32.32,10.18,44.08,3.18,5.96-3.54,6.88-9.17,5.81-15.7-1.73-1.54-3.85-2.53-5.81-3.71-.52-.32-1.35-.14-1.79-.44s-6.25-6.11-6.5-6.49c-.9-1.39-3.34-9.85-3.14-11.55.28-2.34,2.4-6.77,4.52-8.01,7.06-4.13,21.17-4.42,29.24-3.8,3.77.29,11.42,2.29,13.93,4.82Z"/>
      <path d="M201.58,238.44c9.4,7.15,11.78,18.17,9.21,29.34-.49,2.15-4.7,7.48-6.55,8.7-.17.11-3.41,1.61-3.61,1.65-3.92.78-11.09.14-14.5-1.99-9.29-5.8-11.89-22.55-8.23-32.12.22-.59,1.02-.55,1.21-.89.51-.9.09-1.8.99-3.03.11-.16,2.62-2.61,2.79-2.7.86-.43,1.84-.06,2.39-.38.26-.15.27-1.08.92-1.31.7-.25,9.91-.27,10.93-.07,1.1.22,3.58,2.14,4.45,2.8Z"/>
      <path d="M323.19,271.95c-.64.71-3.96,3.9-4.52,4.22-3.11,1.81-9.39,2.67-13.02,1.96-1.23-.24-6.24-3.6-7.09-4.66-3.42-4.27-3.87-13.33-3.19-18.6.19-1.49,2.64-8.02,3.52-9.48,3.55-5.89,9.81-10.28,16.75-10.25s12.06,3.39,14.02,9.98c.46,1.55.54,12.51.21,14.25-.65,3.39-4.22,9.83-6.68,12.58Z"/>
    </g>
  </g>
</svg>